<?xml version="1.0" encoding="utf-8"?>
<!-- Generator: Adobe Illustrator 19.0.0, SVG Export Plug-In . SVG Version: 6.00 Build 0)  -->
<svg version="1.1" id="Layer_1" xmlns="http://www.w3.org/2000/svg" xmlns:xlink="http://www.w3.org/1999/xlink" x="0px" y="0px"
	 viewBox="0 0 500 500" style="enable-background:new 0 0 500 500;" xml:space="preserve">
<style type="text/css">
	.st0{fill:#EC1B24;}
	.st1{fill:#FFFFFF;}
</style>
<g id="XMLID_1_">
	<rect id="XMLID_3_" x="67.5" y="67.6" class="st0" width="365" height="364.7"/>
	<polyline id="XMLID_4_" class="st1" points="302,283.8 307.3,283.8 304.6,279.3 307.3,274.8 302,274.8 299.4,270.3 296.8,274.8 
		291.6,274.8 294.2,279.3 291.6,283.8 296.8,283.8 299.4,288.3 302,283.8 	"/>
	<polyline id="XMLID_5_" class="st1" points="383.3,283.8 388.6,283.8 386.2,279.3 388.6,274.8 383.3,274.8 380.9,270.3 
		378.5,274.8 373.2,274.8 375.5,279.3 373.2,283.8 378.5,283.8 380.9,288.3 383.3,283.8 	"/>
	<path id="XMLID_6_" class="st1" d="M325.8,285.9v1h-5.7v6.6h6.5v41.6h-14.8v-40.7H287v40.7H279v6.9h122.7v-6.9h-8.3v-40.7h-24.9
		v40.7h-14.8v-41.6h6.5v-6.6h-5.3c-0.6-7.2-4.2-13.3-11.9-15v-7.2h5.3v-5h-5.3v-6.1h-5.6v6.1h-5.4v5h5.4v7.2
		C330.6,273.5,325.8,279,325.8,285.9"/>
	<path id="XMLID_7_" class="st1" d="M339.9,370.7c-8.8,0-16.1,7.3-16.1,16.3l-0.3,27.4h-51.4c7.6-21.2,12.7-42.5,14.3-65.1h107.4
		c1.8,22.6,6.5,43.9,14.2,65.1h-51.6V387C356.6,378,349.4,370.7,339.9,370.7"/>
	<path id="XMLID_8_" class="st1" d="M226.3,186.8h-14.7v-41.1H169v9.4c0,20.6-12.2,32.9-36,32.9c-24.4,0-36-11.3-36-32.5V95.3h14.8
		v57.3c0,14.7,5.2,23.3,21.4,23.3c15.9,0,21.3-8.6,21.3-23.3V95.3H169v37.8h42.7V95.3h14.7v37.8h43V95.3H284v91.5h-14.7v-41.1h-43
		V186.8"/>
</g>
</svg>
