<?xml version="1.0" encoding="UTF-8" standalone="no"?>
<!-- Generator: Adobe Illustrator 13.0.2, SVG Export Plug-In . SVG Version: 6.00 Build 14948)  -->

<svg
   xmlns:dc="http://purl.org/dc/elements/1.1/"
   xmlns:cc="http://creativecommons.org/ns#"
   xmlns:rdf="http://www.w3.org/1999/02/22-rdf-syntax-ns#"
   xmlns:svg="http://www.w3.org/2000/svg"
   xmlns="http://www.w3.org/2000/svg"
   xmlns:sodipodi="http://sodipodi.sourceforge.net/DTD/sodipodi-0.dtd"
   xmlns:inkscape="http://www.inkscape.org/namespaces/inkscape"
   version="1.1"
   id="UHH-Logo_2010"
   x="0px"
   y="0px"
   width="95.967003"
   height="95.966003"
   viewBox="0 0 95.967 95.966002"
   enable-background="new 0 0 392.463 127.19"
   xml:space="preserve"
   inkscape:version="0.48.3.1 r9886"
   sodipodi:docname="UHH-Logo_2010_small.svg"><metadata
     id="metadata125"><rdf:RDF><cc:Work
         rdf:about=""><dc:format>image/svg+xml</dc:format><dc:type
           rdf:resource="http://purl.org/dc/dcmitype/StillImage" /></cc:Work></rdf:RDF></metadata><defs
     id="defs123" /><sodipodi:namedview
     pagecolor="#ffffff"
     bordercolor="#666666"
     borderopacity="1"
     objecttolerance="10"
     gridtolerance="10"
     guidetolerance="10"
     inkscape:pageopacity="0"
     inkscape:pageshadow="2"
     inkscape:window-width="1366"
     inkscape:window-height="744"
     id="namedview121"
     showgrid="false"
     inkscape:zoom="4.0118375"
     inkscape:cx="92.975351"
     inkscape:cy="47.983003"
     inkscape:window-x="0"
     inkscape:window-y="24"
     inkscape:window-maximized="1"
     inkscape:current-layer="g41"
     fit-margin-top="0"
     fit-margin-left="0"
     fit-margin-right="0"
     fit-margin-bottom="0" /><g
     id="g41"
     transform="translate(-0.41800258,0)"><polygon
       points="96.385,95.966 0.418,95.966 0.418,0 0.418,0 96.385,0 "
       id="polygon43"
       style="fill:#ffffff" /><polygon
       points="59.372,54.508 60.057,55.695 59.372,56.883 60.743,56.883 61.428,58.07 62.113,56.883 62.113,56.883 63.484,56.883 62.799,55.695 63.484,54.508 62.113,54.508 61.428,53.322 60.742,54.508 "
       id="polygon45"
       style="fill:#ffffff" /><polygon
       points="80.825,54.508 81.51,55.695 80.825,56.883 82.195,56.883 82.881,58.07 83.566,56.883 83.566,56.883 84.938,56.883 84.252,55.695 84.938,54.508 83.566,54.508 82.881,53.322 82.195,54.508 "
       id="polygon47"
       style="fill:#ffffff" /><path
       d="m 68.386,57.432 v 0.256 h -1.501 v 1.752 h 1.691 V 70.395 H 64.678 V 59.686 h -6.5 l 0,10.708 h -2.125 v 1.818 H 88.256 V 70.394 H 86.131 V 59.686 h -6.5 V 70.394 H 75.733 V 59.439 h 1.691 v -1.752 h -1.501 c -0.095,-1.885 -1.032,-3.496 -2.999,-3.932 v -1.894 h 1.408 v -1.315 h -1.408 v -1.607 h -1.539 v 1.607 h -1.408 v 1.315 h 1.408 v 1.898 c -1.737,0.405 -2.999,1.845 -2.999,3.673 l 0,0 z"
       id="path49"
       inkscape:connector-curvature="0"
       style="fill:#e2001a;fill-opacity:1" /><path
       d="m 72.155,79.728 c -2.374,0 -4.298,1.924 -4.298,4.297 l -0.076,7.197 H 54.267 c 2.007,-5.574 3.341,-11.184 3.754,-17.131 h 14.134 14.133 c 0.414,5.947 1.748,11.557 3.755,17.131 H 76.528 l -0.076,-7.197 c 0.001,-2.373 -1.924,-4.297 -4.297,-4.297 l 0,0 z"
       id="path51"
       inkscape:connector-curvature="0"
       style="fill:#e2001a;fill-opacity:1" /><path
       d="m 42.2,31.336 h -3.85 v -10.8 H 27.099 v 2.495 c 0,5.416 -3.205,8.662 -9.463,8.662 -6.427,0 -9.464,-2.99 -9.464,-8.555 V 7.276 h 3.885 v 15.078 c 0,3.875 1.352,6.131 5.614,6.131 4.196,0 5.614,-2.256 5.614,-6.131 V 7.276 h 3.814 v 9.946 H 38.35 V 7.276 h 3.85 v 9.946 H 53.523 V 7.276 h 3.85 v 24.061 h -3.85 v -10.8 H 42.2 v 10.799 l 0,0 z"
       id="path53"
       inkscape:connector-curvature="0"
       style="fill:#e2001a;fill-opacity:1" /></g></svg>